# xmcd
#
# Track frame offsets:
# 150
# 14430
# 27602
# 41752
# 55007
# 66992
# 79367
# 93295
# 104387
# 117370
# 129837
# 142807
# 157272
# 170417
# 183432
# 197795
#
# Disc length: 2747 seconds
#
#
# Revision: 4
# Processed by: cddbd v1.5.2PL0 Copyright (c) Steve Scherf et al.
# Submitted via: FreeRIP 2.945 
#
DISCID=df0ab910
DTITLE=Limão Com Mel - Forró Limão Com Mel - Vol. I
DYEAR=0
DGENRE=Forró
TTITLE0=Aflição
TTITLE1=Limites Da Paixão
TTITLE2=Desejos E Loucuras
TTITLE3=Minha Princesa
TTITLE4=Menino Bicho
TTITLE5=Amor Em Código
TTITLE6=Anjo Querubim
TTITLE7=Longe De Você(Give Me Your Heart Tonight)
TTITLE8=Estrela Cadente
TTITLE9=Você E Eu
TTITLE10=Pertinho De Você
TTITLE11=Um Sonho De Amor(The Boxer)
TTITLE12=Dá Licença Pra Mais Um
TTITLE13=Sonho Encantado
TTITLE14=Beija-Flor
TTITLE15=Mistura De Amor
EXTD=
EXTT0=
EXTT1=
EXTT2=
EXTT3=
EXTT4=
EXTT5=
EXTT6=
EXTT7=
EXTT8=
EXTT9=
EXTT10=
EXTT11=
EXTT12=
EXTT13=
EXTT14=
EXTT15=
PLAYORDER=
